<svg width="80" height="80" viewBox="0 0 80 80" fill="none" xmlns="http://www.w3.org/2000/svg">
<path d="M19.3969 27.0005C19.2838 27.0222 19.182 27.0834 19.1094 27.1732C19.0367 27.263 18.998 27.3757 19.0001 27.4914V49.091C19.0001 49.2212 19.0515 49.3461 19.1431 49.4381C19.2347 49.5302 19.3589 49.5819 19.4884 49.5819H22.9376C23.1814 52.0603 25.2625 54 27.7908 54C30.4822 54 32.6745 51.7964 32.6745 49.091C32.6745 46.3857 30.4822 44.182 27.7908 44.182C25.2625 44.182 23.1814 46.1217 22.9376 48.6001H19.9768V27.9823H47.3256V48.6001L32.4953 48.6652C32.4306 48.6642 32.3664 48.6763 32.3063 48.7005C32.2463 48.7248 32.1916 48.7608 32.1455 48.8065C32.0994 48.8521 32.0628 48.9066 32.0378 48.9666C32.0129 49.0266 32 49.091 32 49.1561C32 49.2211 32.0129 49.2855 32.0378 49.3455C32.0628 49.4056 32.0994 49.46 32.1455 49.5057C32.1916 49.5513 32.2463 49.5873 32.3063 49.6116C32.3664 49.6359 32.4306 49.6479 32.4953 49.647L48.8212 49.5819C49.065 52.0603 51.1461 54 53.6744 54C56.2027 54 58.2838 52.0603 58.5276 49.5819H60.5116C60.6411 49.5819 60.7653 49.5302 60.8569 49.4381C60.9485 49.3461 61 49.2212 61 49.091V38.0304C61.0011 37.926 60.969 37.8238 60.9084 37.739L56.5131 31.6181C56.4673 31.5557 56.4075 31.5051 56.3385 31.4704C56.2695 31.4358 56.1934 31.418 56.1163 31.4186H48.3023V27.4914C48.3023 27.3612 48.2509 27.2364 48.1593 27.1443C48.0677 27.0523 47.9435 27.0006 47.814 27.0005H19.4884C19.4732 26.9998 19.4579 26.9998 19.4427 27.0005C19.4274 26.9998 19.4121 26.9998 19.3969 27.0005ZM27.2108 29.9459C27.0813 29.9581 26.9619 30.0216 26.8789 30.1223C26.7959 30.223 26.7561 30.3527 26.7682 30.4829C26.7804 30.6131 26.8435 30.7331 26.9436 30.8165C27.0438 30.8999 27.1729 30.9399 27.3024 30.9277H44.8837C44.9484 30.9287 45.0127 30.9166 45.0728 30.8924C45.1328 30.8681 45.1875 30.8321 45.2336 30.7864C45.2796 30.7408 45.3162 30.6863 45.3412 30.6263C45.3662 30.5663 45.3791 30.5019 45.3791 30.4368C45.3791 30.3718 45.3662 30.3074 45.3412 30.2474C45.3162 30.1873 45.2796 30.1329 45.2336 30.0872C45.1875 30.0416 45.1328 30.0055 45.0728 29.9813C45.0127 29.957 44.9484 29.945 44.8837 29.9459H27.3024C27.2871 29.9452 27.2718 29.9452 27.2566 29.9459C27.2413 29.9452 27.2261 29.9452 27.2108 29.9459ZM48.3023 32.4004H51.7209V39.7639C51.7209 39.8941 51.7724 40.019 51.864 40.111C51.9556 40.2031 52.0798 40.2548 52.2093 40.2548H60.0232V41.7275H58.0697C58.0545 41.7268 58.0392 41.7268 58.024 41.7275C57.9025 41.739 57.7898 41.7958 57.7079 41.8866C57.626 41.9775 57.5808 42.0958 57.5814 42.2184V45.1638C57.5814 45.294 57.6328 45.4189 57.7244 45.5109C57.816 45.603 57.9402 45.6547 58.0697 45.6547H60.0232V48.6001H58.5276C58.2838 46.1217 56.2027 44.182 53.6744 44.182C51.1461 44.182 49.065 46.1217 48.8212 48.6001H48.3023V32.4004ZM52.6977 32.4004H55.8568L60.0232 38.1992V39.273H52.6977V32.4004ZM33.0713 32.8913C32.9417 32.9035 32.8223 32.967 32.7393 33.0677C32.6563 33.1683 32.6165 33.2981 32.6287 33.4283C32.6408 33.5584 32.7039 33.6785 32.8041 33.7619C32.9043 33.8453 33.0333 33.8853 33.1628 33.8731H44.8837C44.9484 33.874 45.0127 33.862 45.0728 33.8378C45.1328 33.8135 45.1875 33.7775 45.2336 33.7318C45.2796 33.6862 45.3162 33.6317 45.3412 33.5717C45.3662 33.5117 45.3791 33.4473 45.3791 33.3822C45.3791 33.3172 45.3662 33.2528 45.3412 33.1928C45.3162 33.1327 45.2796 33.0783 45.2336 33.0326C45.1875 32.987 45.1328 32.9509 45.0728 32.9267C45.0127 32.9024 44.9484 32.8904 44.8837 32.8913H33.1628C33.1476 32.8906 33.1323 32.8906 33.117 32.8913C33.1018 32.8906 33.0865 32.8906 33.0713 32.8913ZM58.5581 42.7093H60.0232V44.6729H58.5581V42.7093ZM27.7908 45.1638C29.9543 45.1638 31.6977 46.9163 31.6977 49.091C31.6977 51.2658 29.9543 53.0182 27.7908 53.0182C25.6272 53.0182 23.8838 51.2658 23.8838 49.091C23.8838 46.9163 25.6272 45.1638 27.7908 45.1638ZM53.6744 45.1638C55.8379 45.1638 57.5814 46.9163 57.5814 49.091C57.5814 51.2658 55.8379 53.0182 53.6744 53.0182C51.5109 53.0182 49.7674 51.2658 49.7674 49.091C49.7674 46.9163 51.5109 45.1638 53.6744 45.1638ZM27.7908 47.1274C26.7177 47.1274 25.8373 48.0124 25.8373 49.091C25.8373 50.1697 26.7177 51.0546 27.7908 51.0546C28.8638 51.0546 29.7442 50.1697 29.7442 49.091C29.7442 48.0124 28.8638 47.1274 27.7908 47.1274ZM53.6744 47.1274C52.6013 47.1274 51.7209 48.0124 51.7209 49.091C51.7209 50.1697 52.6013 51.0546 53.6744 51.0546C54.7475 51.0546 55.6279 50.1697 55.6279 49.091C55.6279 48.0124 54.7475 47.1274 53.6744 47.1274ZM27.7908 48.1092C28.336 48.1092 28.7675 48.543 28.7675 49.091C28.7675 49.6391 28.336 50.0728 27.7908 50.0728C27.2455 50.0728 26.814 49.6391 26.814 49.091C26.814 48.543 27.2455 48.1092 27.7908 48.1092ZM53.6744 48.1092C54.2196 48.1092 54.6511 48.543 54.6511 49.091C54.6511 49.6391 54.2196 50.0728 53.6744 50.0728C53.1292 50.0728 52.6977 49.6391 52.6977 49.091C52.6977 48.543 53.1292 48.1092 53.6744 48.1092Z" fill="#14050C"/>
</svg>
