<svg width="33" height="22" viewBox="0 0 33 22" fill="none" xmlns="http://www.w3.org/2000/svg">
<path fill-rule="evenodd" clip-rule="evenodd" d="M0.439941 21C0.439941 20.4477 0.86132 20 1.38112 20H31.4988C32.0186 20 32.4399 20.4477 32.4399 21C32.4399 21.5523 32.0186 22 31.4988 22H1.38112C0.86132 22 0.439941 21.5523 0.439941 21Z" fill="black"/>
<path fill-rule="evenodd" clip-rule="evenodd" d="M0.439941 11C0.439941 10.4477 0.86132 10 1.38112 10H31.4988C32.0186 10 32.4399 10.4477 32.4399 11C32.4399 11.5523 32.0186 12 31.4988 12H1.38112C0.86132 12 0.439941 11.5523 0.439941 11Z" fill="black"/>
<path fill-rule="evenodd" clip-rule="evenodd" d="M0.439941 1C0.439941 0.447715 0.86132 0 1.38112 0H31.4988C32.0186 0 32.4399 0.447715 32.4399 1C32.4399 1.55228 32.0186 2 31.4988 2H1.38112C0.86132 2 0.439941 1.55228 0.439941 1Z" fill="black"/>
</svg>
