<svg width="80" height="80" viewBox="0 0 80 80" fill="none" xmlns="http://www.w3.org/2000/svg">
<rect width="80" height="80" fill="white"/>
<path d="M59.7911 43.2876C59.7906 43.2881 59.7891 43.2891 59.7891 43.2891C59.7782 43.296 58.9685 43.8046 58.1389 44.0455C59.4716 42.8307 61.813 40.2897 62.2838 37.0839C62.3072 36.9321 62.2326 36.7808 62.0982 36.7072C61.9648 36.633 61.7971 36.6504 61.6807 36.7505C61.6578 36.7704 59.8299 38.3265 58.3758 39.1924C59.9842 37.1829 62.4475 32.9121 60.4644 27.2463C60.4137 27.1005 60.2753 27.0015 60.1176 27C59.9658 27 59.8279 27.0955 59.7742 27.2364C59.7478 27.3051 57.1003 34.1184 54.0213 34.4732C50.8628 34.8385 42.0663 37.7876 39.8941 39.9424C37.7213 37.7876 28.9258 34.8385 25.7668 34.4737C23.1954 34.1771 20.7425 29.1494 20.0139 27.2369C19.9681 27.1174 19.8597 27.0333 19.7163 27.005C19.6999 27.0015 19.6905 27.002 19.6666 27C19.5133 27.0015 19.3754 27.1 19.3232 27.2463C17.3406 32.9126 19.8034 37.1819 21.4118 39.1914C19.9577 38.326 18.1303 36.7694 18.1059 36.749C17.99 36.6504 17.8233 36.6345 17.6894 36.7072C17.5565 36.7808 17.4819 36.9311 17.5038 37.0819C17.9761 40.2957 20.325 42.8407 21.6567 44.052C20.8261 43.8136 20.0099 43.2965 19.9965 43.2876C19.8542 43.197 19.6681 43.2159 19.5466 43.3314C19.4237 43.4478 19.3963 43.632 19.4799 43.7808C24.4545 52.5066 31.9212 50.9589 36.0507 49.1758L39.5915 53.8537C39.6607 53.9453 39.7701 54 39.8851 54C39.9991 54 40.1085 53.9458 40.1777 53.8547L43.7374 49.1758C47.8664 50.9589 55.3351 52.5056 60.3096 43.7793C60.3923 43.6315 60.3644 43.4473 60.2415 43.3314C60.1185 43.2154 59.9329 43.199 59.7911 43.2876ZM46.5646 49.3898C46.5282 49.3803 46.4914 49.3719 46.4551 49.3619C46.4078 49.349 46.362 49.3345 46.3147 49.3216C45.4244 49.0698 44.5695 48.7468 43.7693 48.387C43.7578 48.382 43.7449 48.382 43.7329 48.378C43.5777 48.3258 43.4025 48.3805 43.3219 48.5069L39.8846 53.0251L36.4598 48.5C36.3906 48.4094 36.2811 48.3552 36.1676 48.3552C36.1184 48.3552 36.0696 48.3651 36.0169 48.3875C31.5286 50.406 25.3139 51.3132 20.8022 44.5282C21.4347 44.789 22.2061 45.002 22.8421 44.8592C22.9824 44.8273 23.0919 44.7158 23.1217 44.5745C23.1506 44.4332 23.0939 44.2869 22.9789 44.2043C22.8281 44.0928 19.477 41.5891 18.4488 37.9841C19.6974 38.9804 21.7532 40.4883 22.7615 40.4883C22.9147 40.4883 23.0531 40.3923 23.1058 40.2494C23.1596 40.1056 23.1178 39.9424 23.0018 39.8424C22.9491 39.7966 17.9004 35.3053 19.7223 28.4467C20.6479 30.5353 22.8978 34.8833 25.6817 35.2052C28.7865 35.5636 38.2618 38.7839 39.5895 40.7142C39.6562 40.8128 39.7696 40.8715 39.8926 40.872C39.8926 40.872 39.8926 40.872 39.8931 40.872C40.0155 40.872 40.1289 40.8133 40.1961 40.7152C41.5239 38.7834 50.9996 35.5631 54.1044 35.2052C56.8883 34.8838 59.1377 30.5358 60.0638 28.4472C61.8837 35.3023 56.8365 39.7966 56.7828 39.8434C56.6678 39.9439 56.6265 40.1066 56.6798 40.2494C56.733 40.3923 56.8714 40.4883 57.0242 40.4883C58.0314 40.4883 60.0877 38.9809 61.3363 37.9841C60.3096 41.5757 56.958 44.0923 56.8097 44.2023C56.6907 44.2874 56.6335 44.4342 56.6639 44.574C56.6858 44.68 56.7529 44.7696 56.8445 44.8213C56.8754 44.8388 56.9087 44.8517 56.944 44.8597C57.5815 45.001 58.3509 44.789 58.9834 44.5282C55.3521 49.9914 50.6154 50.4652 46.5646 49.3898Z" fill="black"/>
<path d="M35.1132 40.5874C32.9345 39.082 29.7884 38.7725 25.7584 39.6667C25.6594 39.6896 25.5733 39.7533 25.521 39.8429C25.4703 39.932 25.4588 40.039 25.4897 40.137C25.5096 40.1987 27.5052 46.2676 32.9584 46.3348C33.1037 46.3348 33.2565 46.3238 33.4237 46.3004C34.6325 46.1382 36.6978 45.746 37.5049 44.902C37.5587 44.8458 37.607 44.7876 37.6493 44.7269C37.7025 44.6507 37.7249 44.5586 37.712 44.4636C37.698 44.369 37.3472 42.1316 35.1132 40.5874ZM33.3257 45.5729C33.1679 45.5938 33.0425 45.6032 32.9315 45.5997C28.8085 45.549 26.8687 41.6145 26.3337 40.2963C29.9486 39.5578 32.7599 39.8578 34.6907 41.1891C36.3414 42.3282 36.8311 43.8993 36.9521 44.4173C36.3952 44.9821 34.7375 45.3818 33.3257 45.5729Z" fill="black"/>
<path d="M53.6629 39.6671C53.6619 39.6671 53.6614 39.6671 53.6605 39.6666C49.6345 38.7723 46.4863 39.0824 44.3071 40.5877C42.0662 42.1364 41.7223 44.3704 41.7089 44.4649C41.6955 44.558 41.7178 44.6521 41.7716 44.7262C42.4439 45.6931 44.7072 46.1276 45.9966 46.3008C46.1434 46.3212 46.2813 46.3301 46.4341 46.3326C46.443 46.3326 46.454 46.3346 46.4629 46.3346H46.4963C46.4973 46.3346 46.4978 46.3346 46.4988 46.3346H46.4993C51.8923 46.2674 53.9118 40.1991 53.9327 40.1349C53.9625 40.0383 53.9516 39.9318 53.9003 39.8423C53.8491 39.7542 53.7625 39.69 53.6629 39.6671ZM42.4678 44.4172C42.5877 43.9001 43.0739 42.333 44.7251 41.1919C46.6555 39.8587 49.4677 39.5581 53.0872 40.2961C52.9871 40.5435 52.8373 40.8824 52.6338 41.2705C51.75 42.9531 49.842 45.5578 46.4893 45.5996C46.3679 45.5991 46.239 45.5921 46.0947 45.5727C44.6828 45.3816 43.0252 44.9815 42.4678 44.4172Z" fill="black"/>
</svg>
