<svg width="80" height="80" viewBox="0 0 80 80" fill="none" xmlns="http://www.w3.org/2000/svg">
<path d="M38.5237 58.9443C38.3671 58.9443 38.2142 58.8761 38.1094 58.751L34.7842 54.7903L29.7174 56.4784C29.5141 56.5471 29.2908 56.4879 29.1466 56.33C29.0025 56.1716 28.9653 55.9435 29.0516 55.7476L32.9471 46.8994C33.0675 46.6264 33.388 46.5039 33.6597 46.6227C33.933 46.7431 34.0571 47.062 33.9367 47.3356L30.5327 55.0669L34.7908 53.6481C35.0014 53.5774 35.233 53.6428 35.3761 53.8134L37.983 56.9188V49.3764C37.983 49.0775 38.2251 48.8357 38.5237 48.8357C38.8223 48.8357 39.0644 49.0775 39.0644 49.3764V58.4036C39.0644 58.6306 38.9223 58.8339 38.7088 58.9116C38.6483 58.9337 38.5857 58.9443 38.5237 58.9443Z" fill="#030407"/>
<path d="M42.4763 58.9446C42.4142 58.9446 42.3516 58.9341 42.2912 58.9119C42.0776 58.8343 41.9355 58.631 41.9355 58.4039V49.3767C41.9355 49.0779 42.1777 48.836 42.4763 48.836C42.7748 48.836 43.017 49.0779 43.017 49.3767V56.9191L45.6238 53.8137C45.7669 53.6432 45.998 53.5772 46.2092 53.6484L50.4672 55.0672L47.0633 47.3358C46.9428 47.0623 47.0669 46.7434 47.3402 46.623C47.6129 46.5042 47.9327 46.6266 48.0528 46.8996L51.9484 55.7479C52.0347 55.9438 51.9974 56.1719 51.8533 56.3303C51.7089 56.4887 51.4863 56.5478 51.2825 56.4786L46.2158 54.7905L42.8905 58.7513C42.7857 58.8765 42.6328 58.9446 42.4763 58.9446Z" fill="#030407"/>
<path d="M40.5 50C39.1268 50 37.958 49.3405 36.8278 48.7032C36.3153 48.4138 35.8314 48.1408 35.3475 47.9402C34.8361 47.7279 34.2837 47.5706 33.6987 47.4032C32.4589 47.0494 31.1768 46.6834 30.247 45.753C29.3168 44.8232 28.9509 43.5411 28.5968 42.3018C28.43 41.7168 28.2721 41.1645 28.0601 40.6528C27.8594 40.1691 27.5864 39.6849 27.2971 39.1722C26.6595 38.0422 26 36.8731 26 35.5003C26 34.1274 26.6595 32.9583 27.2974 31.8278C27.5867 31.3156 27.8597 30.8314 28.0604 30.3477C28.2724 29.8361 28.4302 29.2837 28.5971 28.6987C28.9509 27.4589 29.3168 26.1773 30.247 25.247C31.1771 24.3171 32.4589 23.9512 33.6984 23.5974C34.2835 23.43 34.8361 23.2726 35.3475 23.0604C35.8314 22.8597 36.3156 22.5867 36.8284 22.2974C37.9583 21.6595 39.1272 21 40.5 21C41.8728 21 43.0417 21.6595 44.1716 22.2974C44.6843 22.5867 45.1686 22.8597 45.6525 23.0604C46.1639 23.2726 46.7168 23.43 47.3018 23.5974C48.5414 23.9512 49.8232 24.3171 50.753 25.247C51.6832 26.1773 52.0491 27.4589 52.4032 28.6987C52.57 29.2837 52.7279 29.8361 52.9399 30.3477C53.1406 30.8314 53.4136 31.3156 53.7029 31.8284C54.3405 32.9583 55 34.1274 55 35.5003C55 36.8731 54.3405 38.0422 53.7026 39.1727C53.4133 39.6849 53.1403 40.1691 52.9396 40.6528C52.7276 41.1645 52.5698 41.7168 52.4029 42.3018C52.0491 43.5417 51.6832 44.8232 50.753 45.7536C49.8229 46.6834 48.5411 47.0494 47.3016 47.4032C46.7165 47.5706 46.1639 47.7279 45.6525 47.9402C45.1686 48.1408 44.6847 48.4138 44.1722 48.7032C43.042 49.3405 41.8732 50 40.5 50ZM40.5 22.0814C39.4112 22.0814 38.4146 22.6437 37.3598 23.2388C36.8415 23.5314 36.3059 23.8339 35.7614 24.0594C35.1927 24.2954 34.5839 24.4692 33.9952 24.6371C32.8372 24.9676 31.7434 25.2797 31.0115 26.0116C30.2797 26.7434 29.9676 27.8375 29.637 28.9955C29.4692 29.5843 29.2952 30.193 29.0594 30.7618C28.8336 31.3061 28.5313 31.8416 28.2393 32.3596C27.6437 33.4146 27.0814 34.4115 27.0814 35.5003C27.0814 36.5891 27.6437 37.586 28.2391 38.6411C28.5313 39.159 28.8333 39.6945 29.0591 40.2389C29.2948 40.8076 29.4686 41.4164 29.6368 42.0046C29.9673 43.1631 30.2797 44.2566 31.0115 44.9885C31.7434 45.7204 32.8375 46.033 33.9957 46.3636C34.5842 46.5314 35.1927 46.7052 35.7614 46.9412C36.3058 47.1667 36.8412 47.4693 37.3592 47.7613C38.4142 48.3564 39.4109 48.9187 40.4999 48.9187C41.589 48.9187 42.5857 48.3564 43.6407 47.7613C44.1587 47.4693 44.6941 47.1667 45.2385 46.9412C45.8072 46.7052 46.416 46.5315 47.0048 46.3636C48.1627 46.033 49.2566 45.7204 49.9884 44.9891C50.7203 44.2572 51.0324 43.1631 51.3629 42.0052C51.5308 41.4164 51.7048 40.8076 51.9406 40.2389C52.1663 39.6945 52.4686 39.159 52.7606 38.6411C53.3563 37.586 53.9186 36.5897 53.9186 35.5003C53.9186 34.4115 53.3563 33.4146 52.7609 32.3596C52.4686 31.8416 52.1666 31.3062 51.9409 30.7618C51.7051 30.193 51.5314 29.5843 51.3632 28.9955C51.0326 27.8375 50.7203 26.7435 49.9884 26.0116C49.2569 25.2797 48.163 24.9676 47.0048 24.6371C46.416 24.4692 45.8072 24.2955 45.2385 24.0594C44.6941 23.8339 44.1584 23.5314 43.6401 23.2388C42.5854 22.6437 41.5888 22.0814 40.5 22.0814Z" fill="#030407"/>
<path d="M40.5 29.0975C40.6212 29.0975 40.7424 29.1907 40.8344 29.377L42.3752 32.4989C42.559 32.8716 43.046 33.2254 43.4573 33.2851L46.9025 33.7857C47.3137 33.8454 47.4067 34.1317 47.1092 34.4218L44.6162 36.8519C44.3186 37.1419 44.1327 37.7144 44.2028 38.124L44.7913 41.5553C44.8423 41.8521 44.7284 42.0268 44.5218 42.0268C44.4433 42.0268 44.3515 42.0016 44.2503 41.9484L41.1688 40.3283C40.985 40.2316 40.7425 40.1833 40.5 40.1833C40.2576 40.1833 40.0152 40.2316 39.8313 40.3283L36.7497 41.9484C36.6485 42.0016 36.5566 42.0268 36.4782 42.0268C36.2716 42.0268 36.1578 41.8521 36.2087 41.5553L36.7972 38.124C36.8674 37.7144 36.6814 37.1419 36.3839 36.8519L33.8909 34.4218C33.5933 34.1317 33.6863 33.8454 34.0975 33.7857L37.5428 33.2851C37.954 33.2254 38.441 32.8716 38.6249 32.4989L40.1656 29.377C40.2575 29.1907 40.3788 29.0975 40.5 29.0975ZM40.5 28.0161C39.9561 28.0161 39.4685 28.3459 39.1959 28.8984L37.6551 32.0203C37.616 32.0845 37.4603 32.1976 37.3806 32.2161L33.942 32.7156C33.3323 32.8042 32.868 33.1659 32.6999 33.6832C32.5318 34.2006 32.6948 34.7662 33.136 35.1962L35.629 37.6263C35.6779 37.6832 35.7374 37.8663 35.7303 37.9479L35.1428 41.3725C35.0597 41.8568 35.1672 42.3052 35.4454 42.6352C35.6989 42.9358 36.0753 43.1082 36.4782 43.1082C36.7365 43.1082 36.9972 43.0401 37.253 42.9056L40.3344 41.2855C40.343 41.2823 40.4058 41.2647 40.5 41.2647C40.5942 41.2647 40.6571 41.2823 40.6716 41.2885L43.7471 42.9056C44.0028 43.0401 44.2635 43.1082 44.5218 43.1082C44.9247 43.1082 45.3011 42.9359 45.5545 42.6352C45.8328 42.3052 45.9402 41.8568 45.8572 41.3725L45.2687 37.9413C45.2626 37.8664 45.322 37.6833 45.3757 37.6214L47.8639 35.1963C48.3052 34.7662 48.4682 34.2006 48.3001 33.6833C48.132 33.166 47.6676 32.8043 47.058 32.7156L43.6128 32.2151C43.5397 32.1977 43.3839 32.0846 43.3417 32.0145L41.8041 28.8985C41.5315 28.3459 41.0439 28.0161 40.5 28.0161Z" fill="#030407"/>
</svg>
